<svg width="22" height="21" viewBox="0 0 22 21" fill="none" xmlns="http://www.w3.org/2000/svg">
<g clip-path="url(#clip0)">
<path d="M21.0834 16.3819C21.0834 16.8277 20.8903 17.2551 20.5464 17.5703C20.2026 17.8854 19.7363 18.0625 19.2501 18.0625H2.75008C2.26385 18.0625 1.79754 17.8854 1.45372 17.5703C1.1099 17.2551 0.916748 16.8277 0.916748 16.3819V7.13889C0.916748 6.69318 1.1099 6.26572 1.45372 5.95056C1.79754 5.63539 2.26385 5.45833 2.75008 5.45833H6.41675L8.25008 2.9375H13.7501L15.5834 5.45833H19.2501C19.7363 5.45833 20.2026 5.63539 20.5464 5.95056C20.8903 6.26572 21.0834 6.69318 21.0834 7.13889V16.3819Z" stroke="#FDB813" stroke-width="2" stroke-linecap="round" stroke-linejoin="round"/>
<path d="M10.9999 14.7014C13.025 14.7014 14.6666 13.1966 14.6666 11.3403C14.6666 9.48398 13.025 7.97916 10.9999 7.97916C8.97487 7.97916 7.33325 9.48398 7.33325 11.3403C7.33325 13.1966 8.97487 14.7014 10.9999 14.7014Z" stroke="#FDB813" stroke-width="2" stroke-linecap="round" stroke-linejoin="round"/>
</g>
<defs>
<clipPath id="clip0">
<rect width="22" height="20.1667" fill="white" transform="translate(0 0.416664)"/>
</clipPath>
</defs>
</svg>
