<svg width="65" height="42" viewBox="0 0 65 42" fill="none" xmlns="http://www.w3.org/2000/svg">
<path d="M64.1113 10.4569H59.7949V6.14046C59.795 6.02373 59.772 5.90814 59.7274 5.8003C59.6828 5.69245 59.6173 5.59445 59.5348 5.51192C59.4523 5.42939 59.3543 5.36393 59.2464 5.31929C59.1386 5.27466 59.023 5.25172 58.9062 5.25178H54.5898V0.930298C54.5899 0.813577 54.567 0.697988 54.5223 0.590139C54.4777 0.48229 54.4122 0.384297 54.3297 0.301763C54.2472 0.219229 54.1492 0.153773 54.0413 0.109137C53.9335 0.0645005 53.8179 0.0415594 53.7012 0.0416261H0.888672C0.771951 0.0415594 0.656362 0.0645005 0.548513 0.109137C0.440664 0.153773 0.342671 0.219229 0.260137 0.301763C0.177603 0.384297 0.112147 0.48229 0.0675103 0.590139C0.022874 0.697988 -6.66096e-05 0.813577 1.45269e-07 0.930298V30.3276C1.45269e-07 30.5633 0.0936278 30.7893 0.260286 30.9559C0.426944 31.1226 0.652982 31.2162 0.888672 31.2162H5.20508V35.5326C5.20481 35.6495 5.2276 35.7652 5.27215 35.8733C5.3167 35.9813 5.38212 36.0795 5.46468 36.1622C5.54723 36.2449 5.64529 36.3105 5.75324 36.3552C5.86119 36.3999 5.9769 36.4229 6.09375 36.4228H10.4102V40.7392C10.4101 40.856 10.433 40.9716 10.4777 41.0794C10.5223 41.1873 10.5878 41.2852 10.6703 41.3678C10.7528 41.4503 10.8508 41.5158 10.9587 41.5604C11.0665 41.605 11.1821 41.628 11.2988 41.6279H64.1113C64.3464 41.6281 64.572 41.535 64.7386 41.369C64.9052 41.2031 64.9992 40.9779 65 40.7428V11.3455C65 11.1098 64.9064 10.8838 64.7397 10.7171C64.5731 10.5505 64.347 10.4569 64.1113 10.4569ZM1.77734 1.82049H52.8084V29.4389H1.77734V1.82049ZM6.98445 31.2162H53.6971C53.9328 31.2162 54.1588 31.1226 54.3255 30.9559C54.4922 30.7893 54.5858 30.5633 54.5858 30.3276V7.0276H58.0155V34.6455H6.98445V31.2162ZM63.2227 39.8526H12.1916V36.4228H58.9062C59.023 36.4229 59.1386 36.4 59.2464 36.3553C59.3543 36.3107 59.4523 36.2452 59.5348 36.1627C59.6173 36.0802 59.6828 35.9822 59.7274 35.8743C59.772 35.7665 59.795 35.6509 59.7949 35.5342V12.2342H63.2227V39.8526Z" fill="#2E434E"/>
<path d="M8.56527 26.2651C8.56521 26.3818 8.58815 26.4974 8.63278 26.6052C8.67742 26.7131 8.74288 26.8111 8.82541 26.8936C8.90795 26.9761 9.00594 27.0416 9.11379 27.0862C9.22164 27.1309 9.33722 27.1538 9.45395 27.1537H45.1318C45.2486 27.1538 45.3641 27.1309 45.472 27.0862C45.5798 27.0416 45.6778 26.9761 45.7604 26.8936C45.8429 26.8111 45.9084 26.7131 45.953 26.6052C45.9976 26.4974 46.0206 26.3818 46.0205 26.2651C46.0216 25.3069 46.4027 24.3882 47.0802 23.7107C47.7578 23.0332 48.6764 22.652 49.6346 22.651C49.7513 22.651 49.8669 22.6281 49.9748 22.5835C50.0826 22.5388 50.1806 22.4734 50.2631 22.3908C50.3457 22.3083 50.4111 22.2103 50.4558 22.1024C50.5004 21.9946 50.5233 21.879 50.5233 21.7623V9.49709C50.5233 9.38037 50.5004 9.26479 50.4558 9.15694C50.4111 9.04909 50.3457 8.95109 50.2631 8.86856C50.1806 8.78603 50.0826 8.72057 49.9748 8.67593C49.8669 8.6313 49.7513 8.60836 49.6346 8.60842C48.6761 8.60748 47.7572 8.2262 47.0796 7.5483C46.4019 6.8704 46.021 5.95129 46.0205 4.9928C46.0206 4.87608 45.9976 4.76049 45.953 4.65264C45.9084 4.54479 45.8429 4.4468 45.7604 4.36426C45.6778 4.28173 45.5798 4.21627 45.472 4.17164C45.3641 4.127 45.2486 4.10406 45.1318 4.10413H9.45395C9.33722 4.10406 9.22164 4.127 9.11379 4.17164C9.00594 4.21627 8.90795 4.28173 8.82541 4.36426C8.74288 4.4468 8.67742 4.54479 8.63278 4.65264C8.58815 4.76049 8.56521 4.87608 8.56527 4.9928C8.56474 5.95129 8.18384 6.8704 7.50623 7.5483C6.82861 8.2262 5.90967 8.60748 4.95117 8.60842C4.83445 8.60836 4.71886 8.6313 4.61101 8.67593C4.50316 8.72057 4.40517 8.78603 4.32264 8.86856C4.2401 8.95109 4.17465 9.04909 4.13001 9.15694C4.08537 9.26479 4.06243 9.38037 4.0625 9.49709V21.7623C4.06243 21.879 4.08537 21.9946 4.13001 22.1024C4.17465 22.2103 4.2401 22.3083 4.32264 22.3908C4.40517 22.4734 4.50316 22.5388 4.61101 22.5835C4.71886 22.6281 4.83445 22.651 4.95117 22.651C5.90936 22.652 6.828 23.0332 7.50554 23.7107C8.18308 24.3882 8.5642 25.3069 8.56527 26.2651ZM5.83984 10.3121C6.94673 10.1253 7.96797 9.59846 8.76177 8.80475C9.55557 8.01104 10.0825 6.98986 10.2695 5.88299H44.3163C44.5032 6.98986 45.0302 8.01104 45.824 8.80475C46.6178 9.59846 47.6391 10.1253 48.7459 10.3121V20.9473C47.6391 21.1341 46.6178 21.6609 45.824 22.4546C45.0302 23.2483 44.5032 24.2695 44.3163 25.3764H10.2695C10.0825 24.2695 9.55557 23.2483 8.76177 22.4546C7.96797 21.6609 6.94673 21.1341 5.83984 20.9473V10.3121Z" fill="#2E434E"/>
<path d="M38.2099 18.3392C38.7459 18.3392 39.2697 18.1803 39.7154 17.8825C40.161 17.5848 40.5083 17.1616 40.7134 16.6664C40.9184 16.1713 40.9721 15.6265 40.8676 15.1009C40.763 14.5752 40.5049 14.0924 40.126 13.7134C39.747 13.3345 39.2642 13.0764 38.7386 12.9719C38.2129 12.8673 37.6681 12.921 37.173 13.1261C36.6779 13.3312 36.2547 13.6785 35.9569 14.1241C35.6592 14.5697 35.5002 15.0936 35.5002 15.6295C35.5011 16.3479 35.7868 17.0366 36.2948 17.5446C36.8028 18.0526 37.4915 18.3384 38.2099 18.3392ZM38.2099 14.6971C38.3943 14.6971 38.5746 14.7518 38.7279 14.8543C38.8812 14.9567 39.0007 15.1023 39.0713 15.2727C39.1419 15.4431 39.1603 15.6305 39.1244 15.8114C39.0884 15.9922 38.9996 16.1584 38.8692 16.2888C38.7388 16.4191 38.5727 16.5079 38.3918 16.5439C38.211 16.5799 38.0235 16.5614 37.8531 16.4909C37.6828 16.4203 37.5372 16.3008 37.4347 16.1475C37.3323 15.9941 37.2776 15.8139 37.2776 15.6295C37.2777 15.3823 37.376 15.1452 37.5508 14.9704C37.7256 14.7956 37.9627 14.6973 38.2099 14.6971Z" fill="#2E434E"/>
<path d="M16.3759 18.3392C16.9119 18.3392 17.4358 18.1803 17.8814 17.8825C18.327 17.5848 18.6743 17.1616 18.8794 16.6664C19.0845 16.1713 19.1381 15.6265 19.0336 15.1009C18.929 14.5752 18.6709 14.0924 18.292 13.7134C17.913 13.3345 17.4302 13.0764 16.9046 12.9719C16.379 12.8673 15.8341 12.921 15.339 13.1261C14.8439 13.3312 14.4207 13.6785 14.1229 14.1241C13.8252 14.5697 13.6663 15.0936 13.6663 15.6295C13.6671 16.3479 13.9528 17.0366 14.4608 17.5446C14.9688 18.0526 15.6575 18.3384 16.3759 18.3392ZM16.3759 14.6971C16.5603 14.6971 16.7406 14.7518 16.8939 14.8543C17.0473 14.9567 17.1668 15.1023 17.2373 15.2727C17.3079 15.4431 17.3264 15.6305 17.2904 15.8114C17.2544 15.9922 17.1656 16.1584 17.0352 16.2888C16.9048 16.4191 16.7387 16.5079 16.5578 16.5439C16.377 16.5799 16.1895 16.5614 16.0192 16.4909C15.8488 16.4203 15.7032 16.3008 15.6007 16.1475C15.4983 15.9941 15.4436 15.8139 15.4436 15.6295C15.4437 15.3823 15.542 15.1452 15.7168 14.9704C15.8916 14.7956 16.1287 14.6973 16.3759 14.6971Z" fill="#2E434E"/>
<path d="M27.7097 18.3392C28.2456 18.3392 28.7695 18.1803 29.2151 17.8825C29.6607 17.5848 30.008 17.1616 30.2131 16.6664C30.4182 16.1713 30.4719 15.6265 30.3673 15.1009C30.2628 14.5752 30.0047 14.0924 29.6257 13.7134C29.2468 13.3345 28.7639 13.0764 28.2383 12.9719C27.7127 12.8673 27.1679 12.921 26.6727 13.1261C26.1776 13.3312 25.7544 13.6785 25.4567 14.1241C25.1589 14.5697 25 15.0936 25 15.6295C25.0008 16.3479 25.2865 17.0366 25.7945 17.5446C26.3025 18.0526 26.9913 18.3384 27.7097 18.3392ZM27.7097 14.6971C27.8941 14.6971 28.0743 14.7518 28.2277 14.8543C28.381 14.9567 28.5005 15.1023 28.5711 15.2727C28.6416 15.4431 28.6601 15.6305 28.6241 15.8114C28.5881 15.9922 28.4993 16.1584 28.369 16.2888C28.2386 16.4191 28.0724 16.5079 27.8916 16.5439C27.7107 16.5799 27.5233 16.5614 27.3529 16.4909C27.1825 16.4203 27.0369 16.3008 26.9345 16.1475C26.832 15.9941 26.7773 15.8139 26.7773 15.6295C26.7775 15.3823 26.8758 15.1452 27.0506 14.9704C27.2254 14.7956 27.4625 14.6973 27.7097 14.6971Z" fill="#2E434E"/>
</svg>
