<svg width="62" height="62" viewBox="0 0 62 62" fill="none" xmlns="http://www.w3.org/2000/svg">
<path d="M23.6477 20.5557H21.5991V22.6043H23.6477V20.5557Z" fill="#2E434E"/>
<path d="M23.6477 24.653H21.5991V26.7016H23.6477V24.653Z" fill="#2E434E"/>
<path d="M23.6477 28.7501H21.5991V30.7987H23.6477V28.7501Z" fill="#2E434E"/>
<path d="M23.6477 32.8474H21.5991V34.896H23.6477V32.8474Z" fill="#2E434E"/>
<path d="M27.7449 20.5557H25.6963V22.6043H27.7449V20.5557Z" fill="#2E434E"/>
<path d="M27.7449 24.653H25.6963V26.7016H27.7449V24.653Z" fill="#2E434E"/>
<path d="M27.7449 28.7501H25.6963V30.7987H27.7449V28.7501Z" fill="#2E434E"/>
<path d="M27.7449 32.8474H25.6963V34.896H27.7449V32.8474Z" fill="#2E434E"/>
<path d="M31.8426 20.5557H29.7939V22.6043H31.8426V20.5557Z" fill="#2E434E"/>
<path d="M31.8426 24.653H29.7939V26.7016H31.8426V24.653Z" fill="#2E434E"/>
<path d="M31.8426 28.7501H29.7939V30.7987H31.8426V28.7501Z" fill="#2E434E"/>
<path d="M31.8426 32.8474H29.7939V34.896H31.8426V32.8474Z" fill="#2E434E"/>
<path d="M35.9397 20.5557H33.8911V22.6043H35.9397V20.5557Z" fill="#2E434E"/>
<path d="M27.7449 16.4585H25.6963V18.5071H27.7449V16.4585Z" fill="#2E434E"/>
<path d="M31.8426 16.4585H29.7939V18.5071H31.8426V16.4585Z" fill="#2E434E"/>
<path d="M35.9397 16.4585H33.8911V18.5071H35.9397V16.4585Z" fill="#2E434E"/>
<path d="M35.9397 24.653H33.8911V26.7016H35.9397V24.653Z" fill="#2E434E"/>
<path d="M35.9397 28.7501H33.8911V30.7987H35.9397V28.7501Z" fill="#2E434E"/>
<path d="M35.9397 32.8474H33.8911V34.896H35.9397V32.8474Z" fill="#2E434E"/>
<path d="M40.0369 20.5557H37.9883V22.6043H40.0369V20.5557Z" fill="#2E434E"/>
<path d="M40.0369 24.653H37.9883V26.7016H40.0369V24.653Z" fill="#2E434E"/>
<path d="M40.0369 28.7501H37.9883V30.7987H40.0369V28.7501Z" fill="#2E434E"/>
<path d="M40.0369 32.8474H37.9883V34.896H40.0369V32.8474Z" fill="#2E434E"/>
<path d="M60.524 15.4342C60.5237 15.4342 60.5233 15.4342 60.5229 15.4342H45.1583V1.09389C45.1587 0.528469 44.7006 0.0699644 44.1352 0.0695803C44.1348 0.0695803 44.1344 0.0695803 44.134 0.0695803H17.5021C16.9366 0.0691962 16.4781 0.527317 16.4778 1.09273C16.4778 1.09312 16.4778 1.0935 16.4778 1.09389V15.4342H1.11317C0.547756 15.4338 0.0892515 15.8919 0.0888674 16.4573C0.0888674 16.4577 0.0888674 16.4581 0.0888674 16.4585V53.3335C0.0884833 53.8989 0.546604 54.3574 1.11202 54.3578C1.1124 54.3578 1.11279 54.3578 1.11317 54.3578H3.25436C3.19495 54.6961 3.16396 55.0387 3.16178 55.3821V60.5036C3.1614 61.069 3.61952 61.5275 4.18494 61.5279C4.18532 61.5279 4.18571 61.5279 4.18609 61.5279H57.45C58.0154 61.5283 58.4739 61.0702 58.4743 60.5048C58.4743 60.5044 58.4743 60.504 58.4743 60.5036V55.3821C58.4722 55.0387 58.4413 54.6961 58.3817 54.3578H60.5229C61.0883 54.3582 61.5468 53.9 61.5472 53.3346C61.5472 53.3342 61.5472 53.3339 61.5472 53.3335V16.4585C61.5476 15.8931 61.0895 15.4345 60.524 15.4342ZM44.134 44.1147C44.134 45.2462 43.2169 46.1633 42.0854 46.1633C40.9539 46.1633 40.0368 45.2462 40.0368 44.1147C40.0368 42.9832 40.9539 42.0661 42.0854 42.0661C43.2162 42.0675 44.1326 42.9839 44.134 44.1147ZM19.5507 42.0661C20.6821 42.0661 21.5993 42.9832 21.5993 44.1147C21.5993 45.2462 20.6821 46.1633 19.5507 46.1633C18.4192 46.1633 17.5021 45.2462 17.5021 44.1147C17.5035 42.9839 18.4198 42.0675 19.5507 42.0661ZM13.4048 59.4793H5.21039V55.3821C5.21039 53.1193 7.0448 51.2849 9.30762 51.2849C11.5704 51.2849 13.4048 53.1193 13.4048 55.3821V59.4793ZM7.25901 47.1876C7.25901 46.0562 8.17614 45.139 9.30762 45.139C10.4391 45.139 11.3562 46.0562 11.3562 47.1876C11.3562 48.3191 10.4391 49.2362 9.30762 49.2362C8.17678 49.2348 7.26041 48.3185 7.25901 47.1876ZM13.56 50.9552C13.1737 50.5826 12.7406 50.262 12.2714 50.0014C13.8338 48.3646 13.7735 45.771 12.1366 44.2086C10.4998 42.6461 7.90624 42.7066 6.34379 44.3434C4.83255 45.9266 4.83255 48.4181 6.34379 50.0013C5.36609 50.5439 4.55382 51.3414 3.99326 52.309H2.13748V17.4828H16.4778V41.4331C15.0711 43.0114 15.1186 45.4073 16.5868 46.9285C15.0504 47.7783 13.9494 49.243 13.56 50.9552ZM23.6479 59.4793H15.4535V52.3092C15.4535 50.0463 17.2879 48.2119 19.5507 48.2119C21.8135 48.2119 23.6479 50.0463 23.6479 52.3092V59.4793ZM35.9396 59.4793H25.6965V52.3092C25.6965 49.4807 27.9895 47.1876 30.818 47.1876C33.6465 47.1876 35.9396 49.4807 35.9396 52.3092V59.4793ZM27.7451 42.0661C27.7451 40.369 29.1209 38.9932 30.818 38.9932C32.5152 38.9932 33.891 40.369 33.891 42.0661C33.891 43.7633 32.5152 45.139 30.818 45.139C29.1217 45.1372 27.7469 43.7625 27.7451 42.0661ZM37.0563 48.7875C36.3704 47.5783 35.3499 46.593 34.1175 45.9501C36.2809 44.1279 36.5575 40.8969 34.7354 38.7334C32.9131 36.5699 29.6821 36.2934 27.5186 38.1155C25.3552 39.9377 25.0786 43.1688 26.9007 45.3322C27.0887 45.5554 27.2953 45.7621 27.5186 45.9501C26.2861 46.593 25.2657 47.5783 24.5798 48.7875C24.0412 48.0192 23.335 47.3835 22.5145 46.9285C24.0849 45.322 24.0557 42.7465 22.4491 41.1761C21.4147 40.1649 19.9211 39.7792 18.5264 40.1629V2.11819H43.1097V40.1629C42.7759 40.0709 42.4316 40.022 42.0854 40.0175C39.8286 40.0115 37.9942 41.8362 37.9882 44.0931C37.9854 45.1491 38.3916 46.1654 39.1216 46.9285C38.3011 47.3835 37.5948 48.0192 37.0563 48.7875ZM46.1826 55.3821V59.4793H37.9882V52.3092C37.9882 50.0463 39.8226 48.2119 42.0854 48.2119C44.3482 48.2119 46.1826 50.0463 46.1826 52.3092V55.3821ZM56.4257 59.4793H48.2312V55.3821C48.2312 53.1193 50.0656 51.2849 52.3285 51.2849C54.5913 51.2849 56.4257 53.1193 56.4257 55.3821V59.4793ZM50.2798 47.1876C50.2798 46.0562 51.197 45.139 52.3285 45.139C53.4599 45.139 54.3771 46.0562 54.3771 47.1876C54.3771 48.3191 53.4599 49.2362 52.3285 49.2362C51.1976 49.2348 50.2812 48.3185 50.2798 47.1876ZM59.4986 52.3092H57.6428C57.0823 51.3416 56.27 50.544 55.2923 50.0014C56.8546 48.3646 56.7943 45.771 55.1575 44.2086C53.5206 42.6463 50.9271 42.7066 49.3646 44.3434C47.8534 45.9266 47.8534 48.4181 49.3646 50.0013C48.8955 50.2618 48.4622 50.5824 48.076 50.955C47.6868 49.2429 46.5857 47.7781 45.0492 46.9284C46.5174 45.4071 46.5651 43.0113 45.1584 41.433V17.4828H59.4987V52.3092H59.4986Z" fill="#2E434E"/>
<path d="M50.2801 23.6287H48.2314V40.0176H50.2801V23.6287Z" fill="#2E434E"/>
<path d="M56.4256 23.6287H54.377V40.0176H56.4256V23.6287Z" fill="#2E434E"/>
<path d="M7.25906 23.6287H5.21045V40.0176H7.25906V23.6287Z" fill="#2E434E"/>
<path d="M13.4051 23.6287H11.3564V40.0176H13.4051V23.6287Z" fill="#2E434E"/>
<path d="M36.9651 4.16675C36.9647 4.16675 36.9643 4.16675 36.9639 4.16675H24.6723C24.1068 4.16636 23.6483 4.62449 23.6479 5.1899C23.6479 5.19029 23.6479 5.19067 23.6479 5.19105V13.3855C23.6476 13.9509 24.1057 14.4094 24.6711 14.4098C24.6715 14.4098 24.6719 14.4098 24.6723 14.4098H36.9639C37.5293 14.4102 37.9878 13.9521 37.9882 13.3867C37.9882 13.3863 37.9882 13.3859 37.9882 13.3855V5.19105C37.9886 4.62564 37.5305 4.16713 36.9651 4.16675ZM35.9396 12.3612H25.6966V6.21536H35.9396V12.3612Z" fill="#2E434E"/>
</svg>
