<svg width="144" height="143" viewBox="0 0 144 143" fill="none" xmlns="http://www.w3.org/2000/svg">
<g clip-path="url(#clip0)">
<path d="M102.322 72.534L102.322 76.9977L101.298 79.0872L94.3881 93.1838L87.4416 107.353L80.5676 121.377L74.4246 133.909L72.1928 136.141L69.9609 133.909L67.287 127.416L63.4859 118.186L59.6863 108.957L55.6076 99.0507L52.087 90.5001L48.2873 81.2716L46.527 76.9977L46.527 72.534L67.506 72.534L91.6067 72.534L102.322 72.534Z" fill="#FDB813"/>
<path d="M87.4411 107.353L80.5671 121.377L67.2865 127.415L63.4854 118.185L87.4411 107.353Z" fill="#E3A103"/>
<path d="M101.298 79.0874L94.3877 93.1841L59.6859 108.957L55.6073 99.0509L101.298 79.0874Z" fill="#E3A103"/>
<path d="M91.6065 72.5339L52.0868 90.4999L48.2872 81.2714L67.5058 72.5339L91.6065 72.5339Z" fill="#E3A103"/>
<path d="M50.9903 65.8386L50.9903 56.5061C50.9903 55.3366 50.5257 54.215 49.6987 53.388C49.0885 52.7777 48.3126 52.36 47.4672 52.1864C46.6218 52.0129 45.7441 52.0913 44.9428 52.4118L40.792 54.0721C37.9692 55.2012 34.8995 55.5692 31.8899 55.1392L28.6722 54.6796L29.7881 49.1C33.4043 49.8233 37.1585 49.3205 40.4569 47.6713L42.229 46.7852C44.1304 45.8346 46.2827 45.5062 48.381 45.8467C50.4793 46.1873 52.4173 47.1794 53.9205 48.6825C55.6301 50.3921 56.6717 52.6569 56.8572 55.0675L57.6857 65.8386L50.9903 65.8386Z" fill="#FDB813"/>
<path d="M61.0335 44.6362L53.2222 39.0566L62.1494 34.593L61.0335 44.6362Z" fill="#D1E4FF"/>
<path d="M42.8994 40.3994L41.2769 37.6922L46.8579 34.3473L48.4804 37.0545L42.8994 40.3994Z" fill="#FB6A83"/>
<path d="M52.7749 28.6909L53.8894 23.1105L56.9849 23.7287L55.8704 29.3091L52.7749 28.6909Z" fill="#FDB813"/>
<path d="M34.5469 62.7139L36.1694 60.0067L41.7504 63.3516L40.1279 66.0588L34.5469 62.7139Z" fill="#6173E8"/>
<path d="M93.3947 65.8385L93.3947 56.506C93.3947 55.3365 93.8593 54.2149 94.6863 53.3879C95.2966 52.7776 96.0725 52.3599 96.9179 52.1863C97.7632 52.0128 98.641 52.0912 99.4423 52.4117L103.593 54.072C106.416 55.2011 109.486 55.5691 112.495 55.1391L115.713 54.6795L114.597 49.0999C110.981 49.8232 107.227 49.3204 103.928 47.6712L102.156 46.7851C100.255 45.8345 98.1024 45.5061 96.004 45.8466C93.9057 46.1872 91.9677 47.1792 90.4646 48.6824C88.755 50.392 87.7133 52.6568 87.5279 55.0674L86.6993 65.8385L93.3947 65.8385Z" fill="#6173E8"/>
<path d="M87.8154 42.4047L95.6267 36.8252L86.6995 32.3616L87.8154 42.4047Z" fill="#FDB813"/>
<path d="M99.2495 40.3687L100.872 37.6615L106.453 41.0064L104.831 43.7136L99.2495 40.3687Z" fill="#FB6A83"/>
<path d="M88.5273 29.314L87.4129 23.7335L90.5084 23.1153L91.6229 28.6958L88.5273 29.314Z" fill="#D1E4FF"/>
<path d="M104.299 66.0859L102.676 63.3788L108.257 60.0338L109.88 62.741L104.299 66.0859Z" fill="#6173E8"/>
<path d="M67.7292 66.9543L66.9851 57.3216C66.7432 54.1936 67.6989 51.0906 69.6588 48.6407L69.7714 48.4999C71.4554 46.4014 72.4405 43.8284 72.5884 41.1418C72.7363 38.4552 72.0397 35.7896 70.5962 33.5189L70.5962 33.5189C69.731 32.1593 69.2535 30.5893 69.2152 28.9782C69.1768 27.3672 69.5791 25.7762 70.3787 24.377L76.6564 13.391L82.2359 16.7387L77.5426 24.1139C76.6156 25.5706 76.1333 27.2658 76.1545 28.9923C76.1758 30.7187 76.6997 32.4016 77.6623 33.835L77.7918 34.0279C79.41 36.4381 80.2097 39.3051 80.0727 42.2049C79.9356 45.1047 78.869 47.8835 77.0307 50.1303L76.912 50.2754C74.5994 53.0881 73.4881 56.6987 73.8187 60.325C74.1148 63.5461 74.4246 66.9543 74.4246 66.9543L67.7292 66.9543Z" fill="#FB6A83"/>
</g>
<defs>
<clipPath id="clip0">
<rect width="101" height="101" fill="white" transform="translate(0.774902 71.418) rotate(-45)"/>
</clipPath>
</defs>
</svg>
