<svg width="58" height="62" viewBox="0 0 58 62" fill="none" xmlns="http://www.w3.org/2000/svg">
<path d="M35.3147 32.4515C40.4593 28.8399 41.702 21.7416 38.0903 16.5972C34.4786 11.4528 27.3805 10.2099 22.236 13.8216C17.0916 17.4333 15.8488 24.5314 19.4605 29.6759C20.2179 30.7548 21.1571 31.694 22.236 32.4515C16.1589 33.4961 11.7141 38.7609 11.7036 44.9272V60.7096C11.7035 61.338 12.2128 61.8476 12.8412 61.8477C12.8413 61.8477 12.8416 61.8477 12.8417 61.8477H44.709C45.3374 61.8479 45.847 61.3386 45.8471 60.7102C45.8471 60.7101 45.8471 60.7098 45.8471 60.7096V44.9271C45.8365 38.7609 41.3918 33.4961 35.3147 32.4515ZM19.6704 23.1518C19.6704 18.1233 23.7469 14.0468 28.7754 14.0468C33.8039 14.0468 37.8803 18.1233 37.8803 23.1518C37.8803 28.1802 33.8039 32.2567 28.7754 32.2567C23.7493 32.251 19.6761 28.1778 19.6704 23.1518ZM43.5709 59.5715H13.9798V44.9271C13.9862 39.1893 18.6362 34.5393 24.3741 34.5329H33.1768C38.9146 34.5393 43.5645 39.1893 43.5709 44.9271V59.5715Z" fill="#2E434E"/>
<path d="M29.9134 0.389648H27.6372V4.94212H29.9134V0.389648Z" fill="#2E434E"/>
<path d="M42.0994 3.19306L38.8804 6.41211L40.4899 8.02163L43.7089 4.80258L42.0994 3.19306Z" fill="#2E434E"/>
<path d="M57.2283 59.5718H52.6758V61.848H57.2283V59.5718Z" fill="#2E434E"/>
<path d="M57.2283 48.1904H52.6758V50.4667H57.2283V48.1904Z" fill="#2E434E"/>
<path d="M57.2283 36.8096H52.6758V39.0858H57.2283V36.8096Z" fill="#2E434E"/>
<path d="M55.6158 24.7642L51.2974 26.2046L52.0176 28.3638L56.336 26.9234L55.6158 24.7642Z" fill="#2E434E"/>
<path d="M52.0797 12.9619L47.7612 14.4023L48.4814 16.5616L52.7999 15.1212L52.0797 12.9619Z" fill="#2E434E"/>
<path d="M15.452 3.19539L13.8423 4.80469L17.0609 8.02419L18.6706 6.4149L15.452 3.19539Z" fill="#2E434E"/>
<path d="M4.87473 59.5718H0.322266V61.848H4.87473V59.5718Z" fill="#2E434E"/>
<path d="M4.87473 48.1904H0.322266V50.4667H4.87473V48.1904Z" fill="#2E434E"/>
<path d="M4.87473 36.8096H0.322266V39.0858H4.87473V36.8096Z" fill="#2E434E"/>
<path d="M1.9368 24.7653L1.21729 26.9248L5.53621 28.3638L6.25573 26.2044L1.9368 24.7653Z" fill="#2E434E"/>
<path d="M5.46753 12.9699L4.74756 15.1294L9.06649 16.5693L9.78646 14.4099L5.46753 12.9699Z" fill="#2E434E"/>
</svg>
