<svg width="116" height="51" viewBox="0 0 116 51" fill="none" xmlns="http://www.w3.org/2000/svg">
<path d="M106.812 49.8871V40.1041H108.497V45.0232L113.058 40.1041H115.126L111.14 44.3109L115.304 49.8871H113.263L109.989 45.4847L108.496 47.0497V49.8871H106.812ZM1.68001 49.8871H0.00146484V39.223H4.06937C6.48338 39.223 7.98644 40.6208 7.98644 42.7302V42.7608C7.98644 45.1076 6.14664 46.3448 3.85882 46.3448H1.68001V49.8871ZM1.68001 40.7701V44.8134H3.91854C5.35366 44.8134 6.27729 43.9876 6.27729 42.8071V42.7764C6.27729 41.4541 5.33349 40.7701 3.91854 40.7701H1.68001ZM9.69709 49.8871V40.1041H13.9703C15.1762 40.1041 16.1208 40.4677 16.7375 41.0822C17.2445 41.6131 17.532 42.3404 17.532 43.1923C17.532 44.8276 16.5867 45.7915 15.2449 46.1828L17.8336 49.8863H15.8475L13.4917 46.4762H11.3823V49.8863H9.69709V49.8871ZM11.3823 44.9538H13.8479C15.053 44.9538 15.8198 44.3109 15.8198 43.3185C15.8198 42.2426 15.0799 41.6691 13.8337 41.6691H11.3823V44.9538ZM24.0356 50.0551C21.0907 50.0551 19.0365 47.777 19.0365 45.024C19.0365 42.2433 21.1183 39.9368 24.0632 39.9368C27.0081 39.9368 29.0622 42.215 29.0622 44.968C29.0622 47.7486 26.9805 50.0551 24.0356 50.0551ZM24.0632 48.4759C25.9672 48.4759 27.2955 46.9242 27.2955 45.0232C27.2955 43.0945 25.9396 41.5153 24.0356 41.5153C22.1315 41.5153 20.8032 43.0662 20.8032 44.9672C20.8039 46.8959 22.1599 48.4759 24.0632 48.4759ZM34.1284 49.9572L30.1426 40.1041H32.0056L34.8952 47.6232L37.7714 40.1041H39.5933L35.6076 49.9572H34.1284ZM41.1965 49.8871V40.1041H42.881V49.8871H41.1965ZM45.3047 49.8871V40.1041H48.879C51.8919 40.1041 53.9743 42.2142 53.9743 44.9672C53.9743 47.7486 51.8926 49.8871 48.879 49.8871H45.3047ZM46.9892 48.322H48.879C50.8921 48.322 52.207 46.9384 52.207 45.024C52.207 43.0811 50.8921 41.6699 48.879 41.6699H46.9892V48.322ZM59.8089 50.0409C57.3165 50.0409 55.7276 48.5737 55.7276 45.7363V40.1041H57.4121V45.6661C57.4121 47.4828 58.3297 48.4609 59.8365 48.4609C61.3299 48.4609 62.2468 47.5388 62.2468 45.7355V40.1033H63.9313V45.6519C63.9313 48.5737 62.3148 50.0409 59.8089 50.0409ZM69.4634 50.0267C67.9977 50.0267 66.6149 49.5092 65.4642 48.4617L66.4775 47.2319C67.3952 48.042 68.3128 48.5035 69.5045 48.5035C70.5454 48.5035 71.2032 48.0144 71.2032 47.2737C71.2032 46.5472 70.8202 46.1693 69.0393 45.7505C66.9987 45.2472 65.848 44.6327 65.848 42.8295C65.848 41.1241 67.2174 39.9645 69.1215 39.9645C70.5185 39.9645 71.6281 40.3975 72.6002 41.1942L71.6968 42.4935C70.8336 41.8364 69.9712 41.4877 69.0946 41.4877C68.1082 41.4877 67.5333 42.0051 67.5333 42.6473C67.5333 43.4298 67.9716 43.7658 69.8069 44.2123C71.8341 44.7156 72.8885 45.4563 72.8885 47.0773C72.8877 48.9365 71.4765 50.0267 69.4634 50.0267ZM79.7333 49.8841H74.9433V39.3067H79.5832C80.7719 39.3067 81.6948 39.6404 82.2757 40.2333C82.7259 40.6925 82.9581 41.254 82.9581 41.9544V41.985C82.9581 43.2274 82.3287 43.8644 81.3237 44.3975C82.6132 44.847 83.545 45.4593 83.545 46.9922V47.0228C83.545 48.8701 82.0607 49.8841 79.7333 49.8841ZM76.5912 40.8075V43.8367H79.2061C80.4112 43.8367 81.2796 43.3477 81.2796 42.2911V42.2605C81.2796 41.3466 80.5539 40.8075 79.342 40.8075H76.5912ZM76.5912 45.2614V48.3825H79.7482C81.0302 48.3825 81.8665 47.8621 81.8665 46.8219V46.7913C81.8665 45.8102 81.0885 45.2614 79.613 45.2614H76.5912ZM84.6277 49.8871L88.8465 40.0339H90.4078L94.6265 49.8871H92.8464L91.8743 47.5253H87.3404L86.3548 49.8871H84.6277ZM87.9564 46.0021H91.2575L89.5999 42.0888L87.9564 46.0021ZM96.1303 49.8871V40.1041H97.6916L102.827 46.8682V40.1041H104.485V49.8871H103.074L97.7872 42.9273V49.8871H96.1303Z" fill="#2E434E"/>
<path fill-rule="evenodd" clip-rule="evenodd" d="M44.0691 10.5446L46.3875 6.52894H68.9745L69.5539 7.53173L71.2929 10.5446H44.0691ZM47.2746 4.99228L49.5952 0.9729H65.766L68.0867 4.99228H47.2746ZM65.7668 27.2089H52.5558C52.3004 27.2089 52.0854 27.3411 51.9682 27.5382L50.3591 30.3256H45.7685L49.5549 23.7675C49.7267 23.4696 50.1881 23.2284 50.5846 23.2284L68.0621 23.2329L65.7668 27.2089ZM71.278 17.6634L68.9491 21.697H49.3077C49.0569 21.697 48.8471 21.8209 48.7276 22.0083L47.1409 24.7561H42.5503L46.3367 18.1988C46.5085 17.9008 46.9699 17.6597 47.3664 17.6597L71.278 17.6634ZM46.0635 16.1275C45.8171 16.1275 45.602 16.2596 45.4848 16.4568L43.9168 19.1724H39.3262L43.1118 12.6159C43.2836 12.3179 43.745 12.076 44.1415 12.076L72.1793 12.082L73.3396 14.0913L72.1643 16.1267H46.0866L46.0635 16.1275Z" fill="#FDB813"/>
</svg>
