<svg width="116" height="62" viewBox="0 0 116 62" fill="none" xmlns="http://www.w3.org/2000/svg">
<g clip-path="url(#clip0)">
<path d="M106.812 48.9148V39.1318H108.497V44.0509L113.058 39.1318H115.126L111.14 43.3386L115.304 48.9148H113.263L109.989 44.5124L108.496 46.0774V48.9148H106.812ZM1.68001 48.9148H0.00146484V38.2507H4.06937C6.48338 38.2507 7.98644 39.6485 7.98644 41.7579V41.7885C7.98644 44.1353 6.14664 45.3725 3.85882 45.3725H1.68001V48.9148ZM1.68001 39.7978V43.8411H3.91854C5.35366 43.8411 6.27729 43.0153 6.27729 41.8348V41.8042C6.27729 40.4818 5.33349 39.7978 3.91854 39.7978H1.68001ZM9.69709 48.9148V39.1318H13.9703C15.1762 39.1318 16.1208 39.4954 16.7375 40.11C17.2445 40.6408 17.532 41.3681 17.532 42.2201C17.532 43.8553 16.5867 44.8192 15.2449 45.2105L17.8336 48.914H15.8475L13.4917 45.504H11.3823V48.914H9.69709V48.9148ZM11.3823 43.9815H13.8479C15.053 43.9815 15.8198 43.3386 15.8198 42.3463C15.8198 41.2703 15.0799 40.6969 13.8337 40.6969H11.3823V43.9815ZM24.0356 49.0828C21.0907 49.0828 19.0365 46.8047 19.0365 44.0517C19.0365 41.271 21.1183 38.9646 24.0632 38.9646C27.0081 38.9646 29.0622 41.2427 29.0622 43.9957C29.0622 46.7763 26.9805 49.0828 24.0356 49.0828ZM24.0632 47.5036C25.9672 47.5036 27.2955 45.952 27.2955 44.0509C27.2955 42.1222 25.9396 40.543 24.0356 40.543C22.1315 40.543 20.8032 42.0939 20.8032 43.9949C20.8039 45.9236 22.1599 47.5036 24.0632 47.5036ZM34.1284 48.985L30.1426 39.1318H32.0056L34.8952 46.6509L37.7714 39.1318H39.5933L35.6076 48.985H34.1284ZM41.1965 48.9148V39.1318H42.881V48.9148H41.1965ZM45.3047 48.9148V39.1318H48.879C51.8919 39.1318 53.9743 41.2419 53.9743 43.9949C53.9743 46.7763 51.8926 48.9148 48.879 48.9148H45.3047ZM46.9892 47.3497H48.879C50.8921 47.3497 52.207 45.9661 52.207 44.0517C52.207 42.1088 50.8921 40.6976 48.879 40.6976H46.9892V47.3497ZM59.8089 49.0686C57.3165 49.0686 55.7276 47.6014 55.7276 44.764V39.1318H57.4121V44.6938C57.4121 46.5105 58.3297 47.4886 59.8365 47.4886C61.3299 47.4886 62.2468 46.5665 62.2468 44.7632V39.1311H63.9313V44.6796C63.9313 47.6014 62.3148 49.0686 59.8089 49.0686ZM69.4634 49.0544C67.9977 49.0544 66.6149 48.537 65.4642 47.4894L66.4775 46.2596C67.3952 47.0697 68.3128 47.5312 69.5045 47.5312C70.5454 47.5312 71.2032 47.0421 71.2032 46.3014C71.2032 45.5749 70.8202 45.1971 69.0393 44.7782C66.9987 44.2749 65.848 43.6604 65.848 41.8572C65.848 40.1518 67.2174 38.9922 69.1215 38.9922C70.5185 38.9922 71.6281 39.4252 72.6002 40.222L71.6968 41.5212C70.8336 40.8641 69.9712 40.5154 69.0946 40.5154C68.1082 40.5154 67.5333 41.0329 67.5333 41.675C67.5333 42.4575 67.9716 42.7935 69.8069 43.24C71.8341 43.7433 72.8885 44.484 72.8885 46.105C72.8877 47.9643 71.4765 49.0544 69.4634 49.0544ZM79.7333 48.9118H74.9433V38.3344H79.5832C80.7719 38.3344 81.6948 38.6681 82.2757 39.261C82.7259 39.7202 82.9581 40.2817 82.9581 40.9821V41.0127C82.9581 42.2551 82.3287 42.8921 81.3237 43.4252C82.6132 43.8747 83.545 44.487 83.545 46.0199V46.0505C83.545 47.8978 82.0607 48.9118 79.7333 48.9118ZM76.5912 39.8352V42.8644H79.2061C80.4112 42.8644 81.2796 42.3754 81.2796 41.3188V41.2882C81.2796 40.3743 80.5539 39.8352 79.342 39.8352H76.5912ZM76.5912 44.2891V47.4102H79.7482C81.0302 47.4102 81.8665 46.8898 81.8665 45.8497V45.8191C81.8665 44.8379 81.0885 44.2891 79.613 44.2891H76.5912ZM84.6277 48.9148L88.8465 39.0616H90.4078L94.6265 48.9148H92.8464L91.8743 46.553H87.3404L86.3548 48.9148H84.6277ZM87.9564 45.0298H91.2575L89.5999 41.1165L87.9564 45.0298ZM96.1303 48.9148V39.1318H97.6916L102.827 45.896V39.1318H104.485V48.9148H103.074L97.7872 41.955V48.9148H96.1303Z" fill="white"/>
<path fill-rule="evenodd" clip-rule="evenodd" d="M44.0688 9.5724L46.3873 5.55677H68.9743L69.5537 6.55956L71.2927 9.5724H44.0688ZM47.2743 4.02011L49.595 0.000732422H65.7658L68.0865 4.02011H47.2743ZM65.7666 26.2368H52.5556C52.3002 26.2368 52.0852 26.3689 51.9679 26.566L50.3588 29.3534H45.7683L49.5547 22.7953C49.7264 22.4974 50.1879 22.2562 50.5843 22.2562L68.0618 22.2607L65.7666 26.2368ZM71.2778 16.6912L68.9489 20.7248H49.3075C49.0566 20.7248 48.8468 20.8487 48.7274 21.0361L47.1407 23.7839H42.5501L46.3365 17.2266C46.5082 16.9287 46.9697 16.6875 47.3662 16.6875L71.2778 16.6912ZM46.0632 15.1553C45.8168 15.1553 45.6017 15.2875 45.4845 15.4846L43.9165 18.2003H39.3259L43.1116 11.6437C43.2833 11.3458 43.7448 11.1038 44.1413 11.1038L72.179 11.1098L73.3394 13.1191L72.1641 15.1546H46.0863L46.0632 15.1553Z" fill="#FDB813"/>
</g>
<defs>
<clipPath id="clip0">
<rect width="115.3" height="49.0889" fill="white"/>
</clipPath>
</defs>
</svg>
