<svg width="24" height="24" viewBox="0 0 24 24" fill="none" xmlns="http://www.w3.org/2000/svg">
<path d="M7.11111 1H3.44444C2.79614 1 2.17438 1.25754 1.71596 1.71596C1.25754 2.17438 1 2.79614 1 3.44444V7.11111M23 7.11111V3.44444C23 2.79614 22.7425 2.17438 22.284 1.71596C21.8256 1.25754 21.2039 1 20.5556 1H16.8889M16.8889 23H20.5556C21.2039 23 21.8256 22.7425 22.284 22.284C22.7425 21.8256 23 21.2039 23 20.5556V16.8889M1 16.8889V20.5556C1 21.2039 1.25754 21.8256 1.71596 22.284C2.17438 22.7425 2.79614 23 3.44444 23H7.11111" stroke="#FDB813" stroke-width="2" stroke-linecap="round" stroke-linejoin="round"/>
<path d="M17.6665 18.0001V16.6667C17.6665 15.9595 17.3855 15.2812 16.8854 14.7812C16.3854 14.2811 15.7071 14.0001 14.9999 14.0001H9.66662C8.95939 14.0001 8.28112 14.2811 7.78103 14.7812C7.28095 15.2812 7 15.9595 7 16.6667V18.0001" stroke="#FDB813" stroke-width="2" stroke-linecap="round" stroke-linejoin="round"/>
<path d="M12.3331 11.3334C13.8059 11.3334 14.9997 10.1395 14.9997 8.66674C14.9997 7.19401 13.8059 6.00012 12.3331 6.00012C10.8604 6.00012 9.6665 7.19401 9.6665 8.66674C9.6665 10.1395 10.8604 11.3334 12.3331 11.3334Z" stroke="#FDB813" stroke-width="2" stroke-linecap="round" stroke-linejoin="round"/>
</svg>
