<svg width="66" height="58" viewBox="0 0 66 58" fill="none" xmlns="http://www.w3.org/2000/svg">
<path d="M62.2217 24.1611H61.2716V21.3042V11.1479C61.2716 7.82279 58.5705 5.11755 55.2506 5.11755H29.1413L11.5267 0.0770131C11.5216 0.0756166 11.5164 0.0748547 11.5114 0.0734582C11.5062 0.0720617 11.5012 0.0700306 11.496 0.0687611C11.4854 0.0660951 11.4749 0.0648256 11.4643 0.0625404C11.448 0.0591127 11.4316 0.055558 11.4153 0.052892C11.4005 0.0504799 11.3859 0.0489564 11.3711 0.0471791C11.3538 0.0451478 11.3367 0.0433705 11.3196 0.0423549C11.3056 0.0415931 11.2918 0.0414661 11.2779 0.0412122C11.2601 0.0409583 11.2425 0.0408314 11.2249 0.0415931C11.2118 0.0421009 11.1988 0.0433703 11.1859 0.044386C11.1677 0.0459094 11.1496 0.04756 11.1317 0.050226C11.1196 0.0520033 11.1075 0.0542884 11.0955 0.0564466C11.077 0.0597474 11.0587 0.0633019 11.0406 0.0677453C11.0293 0.0705383 11.0183 0.0737121 11.0071 0.076886C10.9886 0.082218 10.9704 0.087677 10.9521 0.0940246C10.9419 0.0977063 10.9317 0.101642 10.9214 0.105704C10.9031 0.112814 10.8848 0.120304 10.8669 0.128556C10.8574 0.132999 10.8482 0.137823 10.8388 0.142521C10.8209 0.151534 10.8033 0.160675 10.7861 0.170958C10.7771 0.176163 10.7684 0.181749 10.7596 0.187335C10.7426 0.197999 10.7259 0.208917 10.7096 0.220724C10.7011 0.226817 10.6929 0.233419 10.6845 0.239894C10.6689 0.251954 10.6535 0.264268 10.6386 0.277345C10.6303 0.284708 10.6223 0.292452 10.6142 0.300069C10.6002 0.313272 10.5864 0.326475 10.5732 0.34044C10.565 0.3492 10.5573 0.35834 10.5493 0.367481C10.5372 0.381319 10.5253 0.395284 10.514 0.409884C10.5059 0.420421 10.4983 0.431212 10.4906 0.442003C10.4806 0.456094 10.4707 0.470313 10.4616 0.484913C10.4537 0.497354 10.4465 0.510303 10.4393 0.523126C10.4313 0.537217 10.4233 0.551436 10.4161 0.566035C10.409 0.580254 10.4026 0.594854 10.3962 0.609453C10.3898 0.623799 10.3836 0.638145 10.378 0.652871C10.3722 0.66836 10.3671 0.684229 10.3619 0.700225C10.3586 0.710508 10.3546 0.720156 10.3515 0.730566C10.35 0.735771 10.3494 0.740849 10.348 0.745928C10.3466 0.751133 10.3446 0.756084 10.3433 0.761289L9.25623 5.1173H6.19543C2.88212 5.1173 0.185743 7.81162 0.174842 11.1276C0.174715 11.1345 0.173828 11.141 0.173828 11.1477V44.1554C0.173828 44.681 0.601 45.1076 1.12451 45.1076C1.64928 45.1076 2.07519 44.681 2.07519 44.1554V15.5394C3.15313 16.5545 4.60247 17.1783 6.19543 17.1783H55.2506C55.2517 17.1783 55.2527 17.1782 55.2539 17.1782C57.5239 17.18 59.3702 19.0302 59.3702 21.3043V27.9698H48.9112C48.9106 27.9698 48.9101 27.97 48.9094 27.97C48.8819 27.97 48.8545 27.9716 48.8273 27.974C48.797 27.9767 48.7671 27.981 48.7377 27.9865C48.7332 27.9872 48.7289 27.9876 48.7245 27.9885C48.6996 27.9934 48.6753 28 48.6511 28.0069C48.6458 28.0084 48.6403 28.0094 48.6351 28.0111C48.6136 28.0177 48.5927 28.0256 48.5718 28.0336C48.5638 28.0366 48.5557 28.0391 48.5477 28.0424C48.5302 28.0497 48.5133 28.0582 48.4965 28.0664C48.4853 28.0718 48.474 28.0767 48.4631 28.0824C48.4499 28.0894 48.4375 28.0974 48.4248 28.105C48.4108 28.1134 48.3964 28.1215 48.3828 28.1307C48.3735 28.1368 48.365 28.1438 48.3561 28.1502C48.3399 28.1619 48.3236 28.1735 48.3081 28.1863C48.3014 28.1919 48.2952 28.1981 48.2887 28.2038C48.2721 28.2183 48.2555 28.2326 48.2398 28.2484C48.2305 28.2576 48.2222 28.2678 48.2134 28.2774C48.2011 28.2908 48.1884 28.3038 48.1768 28.3181C48.1571 28.3421 48.1387 28.3669 48.1215 28.3927C48.1211 28.3931 48.1208 28.3936 48.1205 28.3941L43.0505 36.0114C43.0151 36.0645 42.9852 36.1207 42.9615 36.1792C42.9525 36.2011 42.9453 36.2233 42.938 36.2454C42.9359 36.2521 42.9331 36.2586 42.9311 36.2653C42.924 36.2888 42.9185 36.3125 42.9133 36.3362C42.9119 36.3424 42.9101 36.3485 42.9089 36.3547C42.9047 36.376 42.9019 36.3975 42.8992 36.4189C42.8981 36.4281 42.8963 36.4372 42.8954 36.4465C42.8937 36.4641 42.8933 36.4816 42.8927 36.4993C42.892 36.5127 42.8909 36.5262 42.8909 36.5398C42.8909 36.5529 42.892 36.5659 42.8925 36.579C42.8932 36.597 42.8937 36.6152 42.8954 36.6332C42.8963 36.642 42.898 36.6507 42.8991 36.6595C42.9019 36.6813 42.9047 36.7032 42.909 36.7249C42.9101 36.7309 42.9119 36.7367 42.9133 36.7427C42.9185 36.7665 42.9241 36.7904 42.9312 36.8141C42.9332 36.8209 42.936 36.8273 42.9382 36.8342C42.9454 36.8563 42.9526 36.8785 42.9616 36.9003C42.9854 36.9587 43.0153 37.0151 43.0508 37.0683L48.1208 44.6845C48.121 44.6848 48.1213 44.6851 48.1215 44.6855C48.1419 44.7158 48.1642 44.7448 48.1878 44.7726C48.1955 44.7817 48.2038 44.7902 48.2118 44.7988C48.2279 44.8165 48.2446 44.8335 48.262 44.8499C48.2722 44.8595 48.2824 44.8689 48.2928 44.8779C48.3113 44.8938 48.3304 44.9086 48.3501 44.9231C48.3589 44.9296 48.3674 44.9367 48.3764 44.9428C48.4049 44.9622 48.4345 44.9801 48.465 44.9964C48.4728 45.0004 48.4807 45.0039 48.4885 45.0077C48.5128 45.0199 48.5377 45.0312 48.5631 45.0412C48.573 45.0451 48.5829 45.0487 48.5929 45.0522C48.6171 45.0609 48.6417 45.0685 48.6668 45.0752C48.6771 45.0779 48.6872 45.0807 48.6976 45.0832C48.7234 45.0892 48.7495 45.0937 48.776 45.0976C48.7856 45.099 48.7951 45.1009 48.8047 45.102C48.8374 45.1057 48.8706 45.1077 48.9044 45.108C48.907 45.108 48.9097 45.1085 48.9125 45.1085C48.913 45.1085 48.9136 45.1083 48.9142 45.1083H59.3706V51.7744C59.3706 54.0496 57.5225 55.9006 55.251 55.9006H6.19594C3.92445 55.9006 2.07633 54.0496 2.07633 51.7744C2.07633 51.7694 2.07569 51.7646 2.07557 51.7597V47.9645C2.07557 47.4402 1.64966 47.0124 1.12489 47.0124C0.60138 47.0124 0.174208 47.4402 0.174208 47.9645V51.7744C0.174208 51.7843 0.175349 51.7939 0.175729 51.8037C0.191574 55.1154 2.8858 57.8049 6.19594 57.8049H55.251C58.5706 57.8049 61.2714 55.1002 61.2719 51.7754C61.2719 51.7753 61.2719 51.7751 61.2719 51.7749V45.1083H62.2221C63.7944 45.1083 65.0736 43.8271 65.0736 42.2524V27.0171C65.0732 25.4423 63.794 24.1611 62.2217 24.1611ZM11.9496 2.17846L28.7245 6.97893C28.7253 6.97919 28.7261 6.97931 28.7269 6.97957L39.9698 10.1968H9.94858L11.9496 2.17846ZM59.3701 16.9124C58.2923 15.8975 56.8432 15.2738 55.2506 15.2738C55.2489 15.2738 55.2474 15.274 55.2456 15.274H6.19543C3.92381 15.274 2.07569 13.4231 2.07569 11.1479C2.07569 8.87282 3.92381 7.02184 6.19543 7.02184H8.78102L7.98879 10.1968H6.19568C5.67065 10.1968 5.245 10.6231 5.245 11.149C5.245 11.6748 5.67065 12.1011 6.19568 12.1011H8.72778C8.72905 12.1011 8.73044 12.1014 8.73184 12.1014C8.73285 12.1014 8.73387 12.1011 8.73476 12.1011H46.7544C46.7557 12.1011 46.7568 12.1014 46.758 12.1014C46.759 12.1014 46.76 12.1011 46.761 12.1011H53.9819C54.5069 12.1011 54.9326 11.6748 54.9326 11.149C54.9326 10.6231 54.5069 10.1968 53.9819 10.1968H46.8907L35.7958 7.02184H55.2505C57.5219 7.02184 59.3701 8.87282 59.3701 11.1479V16.9124ZM63.1719 42.2519C63.1719 42.7766 62.7456 43.2035 62.2217 43.2035H49.42L44.9836 36.5393L49.42 29.874H62.2217C62.235 29.874 62.248 29.8725 62.2611 29.872C62.5801 29.8675 62.8863 29.8106 63.1719 29.7093V42.2519ZM62.2217 27.9687C62.2151 27.9687 62.2087 27.9696 62.2021 27.9697H61.2716V26.0654H62.2217C62.7456 26.0654 63.1719 26.4924 63.1719 27.0171C63.1719 27.5417 62.7456 27.9687 62.2217 27.9687Z" fill="#2E434E"/>
<path d="M52.7143 33.0479C50.7922 33.0479 49.2285 34.6141 49.2285 36.5392C49.2285 38.4643 50.7922 40.0304 52.7143 40.0304C54.6365 40.0304 56.2002 38.4643 56.2002 36.5392C56.2002 34.6141 54.6365 33.0479 52.7143 33.0479ZM52.7143 38.1261C51.8406 38.1261 51.1299 37.4143 51.1299 36.5392C51.1299 35.6641 51.8406 34.9521 52.7143 34.9521C53.5881 34.9521 54.2988 35.6641 54.2988 36.5392C54.2988 37.4143 53.5881 38.1261 52.7143 38.1261Z" fill="#2E434E"/>
</svg>
