<svg width="35" height="30" viewBox="0 0 35 30" fill="none" xmlns="http://www.w3.org/2000/svg">
<path fill-rule="evenodd" clip-rule="evenodd" d="M5.41867 9.81874L7.73712 5.80311H30.3241L30.9036 6.8059L32.6425 9.81874H5.41867ZM8.62416 4.26645L10.9448 0.24707H27.1157L29.4363 4.26645H8.62416ZM27.1164 26.4831H13.9054C13.65 26.4831 13.435 26.6153 13.3178 26.8124L11.7087 29.5997H7.11811L10.9045 23.0417C11.0763 22.7437 11.5377 22.5026 11.9342 22.5026L29.4117 22.507L27.1164 26.4831ZM32.6276 16.9376L30.2987 20.9711H10.6574C10.4065 20.9711 10.1967 21.0951 10.0772 21.2825L8.49052 24.0303H3.89993L7.68635 17.4729C7.85808 17.175 8.31953 16.9338 8.71601 16.9338L32.6276 16.9376ZM7.41306 15.4017C7.16666 15.4017 6.9516 15.5338 6.83437 15.7309L5.26637 18.4466H0.675781L4.46144 11.89C4.63318 11.5921 5.09463 11.3502 5.49111 11.3502L33.5289 11.3562L34.6892 13.3655L33.5139 15.4009H7.43619L7.41306 15.4017Z" fill="#FDB813"/>
</svg>
